<svg width="18" height="18" viewBox="0 0 18 18" fill="none" xmlns="http://www.w3.org/2000/svg">
<path d="M9 13.5703C8.80594 13.5703 8.64844 13.7278 8.64844 13.9219C8.64844 14.1159 8.80594 14.2734 9 14.2734C9.19406 14.2734 9.35156 14.1159 9.35156 13.9219C9.35156 13.7278 9.19406 13.5703 9 13.5703Z" fill="black"/>
<path d="M16.4913 2.15754C15.6262 1.80911 14.5014 1.61719 13.3242 1.61719C12.147 1.61719 11.0222 1.80911 10.1571 2.15754C9.64585 2.36345 9.25552 2.6151 9 2.89747C8.74448 2.6151 8.35415 2.36348 7.8429 2.15757C6.97778 1.80911 5.85299 1.61719 4.67578 1.61719C3.49857 1.61719 2.37379 1.80911 1.50866 2.15754C0.535781 2.54939 0 3.10662 0 3.72656V12.1641C0 12.784 0.535781 13.3412 1.50866 13.7331C2.31328 14.0572 3.34259 14.2456 4.42969 14.2704V14.2734C4.42969 15.476 6.3945 16.3828 9 16.3828C11.6055 16.3828 13.5703 15.476 13.5703 14.2734V14.2704C14.6574 14.2456 15.6867 14.0572 16.4913 13.7331C17.4642 13.3412 18 12.784 18 12.1641V3.72656C18 3.10662 17.4642 2.54939 16.4913 2.15754ZM17.2969 10.0547C17.2969 10.3548 16.8876 10.7061 16.2287 10.9715C15.5155 11.2587 14.5581 11.4325 13.5703 11.4575V10.0547C13.5703 10.0537 13.5702 10.0526 13.5702 10.0517C14.6574 10.0269 15.6867 9.83844 16.4914 9.51434C16.8072 9.38714 17.0766 9.24244 17.2969 9.08388L17.2969 10.0547ZM8.64844 5.83594C8.64844 6.13607 8.23911 6.48735 7.58021 6.75274C6.80794 7.0638 5.74931 7.24219 4.67578 7.24219C3.60225 7.24219 2.54362 7.0638 1.77135 6.75274C1.11245 6.48735 0.703125 6.13607 0.703125 5.83594V4.86513C0.923449 5.02369 1.19285 5.16839 1.50866 5.29559C2.37379 5.64402 3.49857 5.83594 4.67578 5.83594C5.85299 5.83594 6.97778 5.64402 7.8429 5.29559C8.15871 5.16839 8.42811 5.02369 8.64844 4.86513V5.83594ZM1.50866 7.40496C2.37379 7.75339 3.49857 7.94531 4.67578 7.94531C5.85299 7.94531 6.97778 7.75339 7.8429 7.40496C8.15871 7.27777 8.42811 7.13306 8.64844 6.97451V7.95154C7.73895 7.98233 6.86672 8.13161 6.16124 8.38005C5.45365 8.62928 4.94448 8.96161 4.66759 9.35146C3.59687 9.35054 2.54166 9.17237 1.77135 8.86212C1.11245 8.59672 0.703125 8.24544 0.703125 7.94531V6.97451C0.923449 7.13306 1.19285 7.27777 1.50866 7.40496ZM0.703125 9.08388C0.923449 9.24244 1.19285 9.38714 1.50866 9.51434C2.31332 9.83841 3.34266 10.0268 4.42979 10.0517C4.42979 10.0527 4.42972 10.0537 4.42972 10.0547V11.4575C3.44194 11.4325 2.48453 11.2587 1.77138 10.9715C1.11245 10.7061 0.703125 10.3548 0.703125 10.0547V9.08388ZM5.17001 9.88196C5.43055 9.27563 6.93436 8.64844 9 8.64844C11.0656 8.64844 12.5694 9.27562 12.8297 9.88126C12.855 9.94036 12.8672 9.99707 12.8672 10.0547C12.8672 10.3638 12.4861 10.7071 11.8478 10.9731C11.0928 11.2877 10.0814 11.4609 9 11.4609C7.91856 11.4609 6.90718 11.2877 6.15217 10.9731C5.51387 10.7071 5.13281 10.3638 5.13281 10.0547C5.13281 9.99707 5.14508 9.94036 5.17001 9.88196ZM17.2969 7.94531C17.2969 8.24544 16.8876 8.59672 16.2287 8.86212C15.4584 9.17237 14.4032 9.35054 13.3325 9.35146C13.0558 8.96182 12.5466 8.62935 11.8388 8.38005C11.1333 8.13157 10.2611 7.98233 9.35156 7.95154V6.97451C9.57189 7.13306 9.84129 7.27777 10.1571 7.40496C11.0222 7.75339 12.147 7.94531 13.3242 7.94531C14.5014 7.94531 15.6262 7.75339 16.4913 7.40496C16.8071 7.27777 17.0766 7.13306 17.2969 6.97451V7.94531ZM17.2969 5.83594C17.2969 6.13607 16.8876 6.48735 16.2287 6.75274C15.4564 7.0638 14.3977 7.24219 13.3242 7.24219C12.2507 7.24219 11.1921 7.0638 10.4198 6.75274C9.76089 6.48735 9.35156 6.13607 9.35156 5.83594V4.86513C9.57189 5.02369 9.84129 5.16839 10.1571 5.29559C11.0222 5.64402 12.147 5.83594 13.3242 5.83594C14.5014 5.83594 15.6262 5.64402 16.4913 5.29559C16.8071 5.16839 17.0766 5.02369 17.2969 4.86513V5.83594ZM10.4198 2.80976C11.1921 2.4987 12.2507 2.32031 13.3242 2.32031C14.3977 2.32031 15.4564 2.4987 16.2287 2.80976C16.8876 3.07515 17.2969 3.42643 17.2969 3.72656C17.2969 4.02669 16.8876 4.37797 16.2287 4.64337C15.4564 4.95443 14.3977 5.13281 13.3242 5.13281C12.2507 5.13281 11.1921 4.95443 10.4198 4.64337C9.76089 4.37797 9.35156 4.02669 9.35156 3.72656C9.35156 3.42643 9.76089 3.07515 10.4198 2.80976ZM1.77135 2.80976C2.54362 2.4987 3.60225 2.32031 4.67578 2.32031C5.74931 2.32031 6.80794 2.4987 7.58021 2.80976C8.23911 3.07515 8.64844 3.42643 8.64844 3.72656C8.64844 4.02669 8.23911 4.37797 7.58021 4.64337C6.80794 4.95443 5.74931 5.13281 4.67578 5.13281C3.60225 5.13281 2.54362 4.95443 1.77135 4.64337C1.11245 4.37797 0.703125 4.02669 0.703125 3.72656C0.703125 3.42643 1.11245 3.07515 1.77135 2.80976ZM1.77135 13.0809C1.11245 12.8155 0.703125 12.4642 0.703125 12.1641V11.1933C0.923449 11.3518 1.19285 11.4965 1.50866 11.6237C2.31328 11.9478 3.34259 12.1362 4.42969 12.161V13.5669C3.4419 13.5419 2.48449 13.3681 1.77135 13.0809ZM11.8478 15.1918C11.0928 15.5064 10.0814 15.6797 9 15.6797C7.91856 15.6797 6.90718 15.5064 6.15217 15.1918C5.51387 14.9259 5.13281 14.5825 5.13281 14.2734V13.3231C5.21244 13.3807 5.30044 13.438 5.39803 13.4945C5.94397 13.8104 6.68679 14.0441 7.54622 14.1702C7.56355 14.1727 7.58071 14.174 7.59772 14.174C7.76929 14.174 7.91944 14.0482 7.9451 13.8734C7.9733 13.6813 7.84041 13.5027 7.64835 13.4745C6.01446 13.2347 5.13281 12.6204 5.13281 12.1641V11.2106C5.92854 11.7929 7.33314 12.1641 9 12.1641C10.6669 12.1641 12.0715 11.7929 12.8672 11.2106V12.1641C12.8672 12.6204 11.9855 13.2347 10.3517 13.4745C10.1596 13.5027 10.0267 13.6813 10.0549 13.8734C10.0806 14.0483 10.2307 14.174 10.4023 14.174C10.4193 14.174 10.4365 14.1727 10.4538 14.1702C11.3132 14.0441 12.056 13.8104 12.602 13.4945C12.6995 13.438 12.7876 13.3807 12.8672 13.3231V14.2734C12.8672 14.5825 12.4861 14.9259 11.8478 15.1918ZM16.2287 13.0809C15.5155 13.3681 14.5581 13.5419 13.5703 13.5668V12.161C14.6574 12.1362 15.6867 11.9477 16.4913 11.6237C16.8071 11.4965 17.0766 11.3518 17.2969 11.1932V12.1641C17.2969 12.4642 16.8876 12.8155 16.2287 13.0809Z" fill="black"/>
</svg>
