<svg width="42" height="14" viewBox="0 0 42 14" fill="none" xmlns="http://www.w3.org/2000/svg">
<rect width="42" height="14" rx="7" fill="url(#paint0_linear)"/>
<path d="M14.8933 10.9998C15.871 10.9998 16.6728 10.6555 17.2594 9.78467H17.3181L17.1421 10.8783H19.6647L20.5251 5.55185C20.7597 4.1139 19.606 3 17.4745 3C15.2257 3 13.9155 4.21516 13.6026 5.63286H16.0861C16.223 5.14679 16.6141 4.92401 17.1225 4.92401C17.5918 4.92401 17.8852 5.14679 17.8265 5.55185V5.5721C17.7483 6.01766 17.2399 6.15943 15.9688 6.26069C14.4044 6.38221 13.0942 7.0303 12.8204 8.73153C12.5662 10.2707 13.4658 10.9998 14.8933 10.9998ZM16.0666 9.23784C15.5972 9.23784 15.3235 8.99481 15.3821 8.5695C15.4408 8.16445 15.7732 7.86066 16.4185 7.75939C16.8488 7.67838 17.2399 7.59737 17.5332 7.47586L17.4354 8.12394C17.3181 8.83279 16.6728 9.23784 16.0666 9.23784Z" fill="#4488FC"/>
<path d="M28.6782 5.62621C28.9031 3.98988 27.5904 3 25.1847 3C22.9778 3 21.4978 3.81816 21.2311 5.36359C21.0062 6.65649 21.754 7.51506 23.3439 7.78778L24.7245 8.0302C25.3364 8.14636 25.5194 8.23221 25.4985 8.45443C25.441 8.84836 24.918 9.14129 24.3061 9.12109C23.7413 9.11098 23.3805 8.85846 23.3648 8.35342H20.5617C20.4518 9.92915 21.7331 10.9998 24.2643 10.9998C26.4189 10.9998 28.1447 10.0453 28.4271 8.45443C28.6259 7.23729 27.8833 6.49488 26.2934 6.21205L24.7036 5.92923C24.1126 5.81812 24.0394 5.68176 24.076 5.5252C24.1336 5.13127 24.6722 4.85855 25.2475 4.85855C25.7391 4.85855 26.1208 5.14137 26.0842 5.62621H28.6782Z" fill="#4488FC"/>
<path d="M32.0413 10.9998C34.1551 10.9998 35.6565 9.96955 36.1899 8.35342H33.7008C33.4637 8.79786 32.9698 9.04028 32.4167 9.04028C31.6067 9.04028 31.2314 8.49484 31.3499 7.74738L31.3746 7.62617H36.3084L36.4072 6.97972C36.8023 4.51512 35.5775 3 33.2859 3C30.935 3 29.1768 4.59593 28.7817 6.99992C28.3669 9.50492 29.6115 10.9998 32.0413 10.9998ZM31.6561 6.09084C31.8092 5.40904 32.392 4.95956 33.0488 4.95956C33.7205 4.95956 34.1354 5.42419 34.0366 6.09084H31.6561Z" fill="#4488FC"/>
<path d="M8.33833 11C10.4521 11 11.9535 9.96972 12.4869 8.35359H9.99776C9.7607 8.79803 9.26682 9.04045 8.71368 9.04045C7.90372 9.04045 7.52837 8.495 7.6469 7.74754L7.67159 7.62633H12.6054L12.7042 6.97988C13.0993 4.51529 11.8745 3.00017 9.5829 3.00017C7.23204 3.00017 5.47384 4.59609 5.07874 7.00008C4.66388 9.50508 5.90845 11 8.33833 11ZM7.9531 6.09101C8.10621 5.40921 8.68898 4.95972 9.34584 4.95972C10.0175 4.95972 10.4324 5.42436 10.3336 6.09101H7.9531Z" fill="#4488FC"/>
<defs>
<linearGradient id="paint0_linear" x1="21" y1="0" x2="21" y2="14" gradientUnits="userSpaceOnUse">
<stop stop-color="white"/>
<stop offset="1" stop-color="white" stop-opacity="0.72"/>
</linearGradient>
</defs>
</svg>
