<svg width="42" height="14" viewBox="0 0 42 14" fill="none" xmlns="http://www.w3.org/2000/svg">
<rect width="41.6873" height="14" rx="7" fill="#4488FC"/>
<path d="M14.8561 10.9998C15.8338 10.9998 16.6356 10.6555 17.2222 9.78467H17.2809L17.1049 10.8783H19.6275L20.4879 5.55185C20.7225 4.1139 19.5688 3 17.4373 3C15.1885 3 13.8783 4.21516 13.5654 5.63286H16.0489C16.1858 5.14679 16.5769 4.92401 17.0853 4.92401C17.5546 4.92401 17.848 5.14679 17.7893 5.55185V5.5721C17.7111 6.01766 17.2027 6.15943 15.9316 6.26069C14.3672 6.38221 13.057 7.0303 12.7832 8.73153C12.529 10.2707 13.4286 10.9998 14.8561 10.9998ZM16.0294 9.23784C15.56 9.23784 15.2863 8.99481 15.3449 8.5695C15.4036 8.16445 15.736 7.86066 16.3813 7.75939C16.8116 7.67838 17.2027 7.59737 17.496 7.47586L17.3982 8.12394C17.2809 8.83279 16.6356 9.23784 16.0294 9.23784Z" fill="url(#paint0_linear)"/>
<path d="M28.641 5.62621C28.8659 3.98988 27.5532 3 25.1475 3C22.9406 3 21.4606 3.81816 21.1939 5.36359C20.969 6.65649 21.7168 7.51506 23.3067 7.78778L24.6873 8.0302C25.2992 8.14636 25.4822 8.23221 25.4613 8.45443C25.4038 8.84836 24.8808 9.14129 24.2689 9.12109C23.7041 9.11098 23.3433 8.85846 23.3276 8.35342H20.5245C20.4146 9.92915 21.6959 10.9998 24.2271 10.9998C26.3817 10.9998 28.1075 10.0453 28.3899 8.45443C28.5887 7.23729 27.8461 6.49488 26.2562 6.21205L24.6664 5.92923C24.0754 5.81812 24.0022 5.68176 24.0388 5.5252C24.0964 5.13127 24.635 4.85855 25.2103 4.85855C25.7019 4.85855 26.0836 5.14137 26.047 5.62621H28.641Z" fill="url(#paint1_linear)"/>
<path d="M32.0041 10.9998C34.1179 10.9998 35.6193 9.96955 36.1527 8.35342H33.6635C33.4265 8.79786 32.9326 9.04028 32.3794 9.04028C31.5695 9.04028 31.1941 8.49484 31.3127 7.74738L31.3374 7.62617H36.2712L36.37 6.97972C36.7651 4.51512 35.5403 3 33.2487 3C30.8978 3 29.1396 4.59593 28.7445 6.99992C28.3297 9.50492 29.5742 10.9998 32.0041 10.9998ZM31.6189 6.09084C31.772 5.40904 32.3548 4.95956 33.0116 4.95956C33.6833 4.95956 34.0981 5.42419 33.9994 6.09084H31.6189Z" fill="url(#paint2_linear)"/>
<path d="M8.3011 11C10.4149 11 11.9163 9.96974 12.4497 8.35361H9.96053C9.72346 8.79804 9.22959 9.04046 8.67644 9.04046C7.86649 9.04046 7.49114 8.49502 7.60967 7.74756L7.63436 7.62635H12.5682L12.667 6.9799C13.0621 4.5153 11.8373 3.00018 9.54567 3.00018C7.19481 3.00018 5.43661 4.59611 5.04151 7.0001C4.62665 9.5051 5.87122 11 8.3011 11ZM7.91587 6.09103C8.06898 5.40922 8.65175 4.95974 9.30861 4.95974C9.98028 4.95974 10.3951 5.42437 10.2964 6.09103H7.91587Z" fill="url(#paint3_linear)"/>
<defs>
<linearGradient id="paint0_linear" x1="16.6291" y1="3" x2="16.6291" y2="10.9998" gradientUnits="userSpaceOnUse">
<stop stop-color="white"/>
<stop offset="1" stop-color="white" stop-opacity="0.72"/>
</linearGradient>
<linearGradient id="paint1_linear" x1="24.5919" y1="3" x2="24.5919" y2="10.9998" gradientUnits="userSpaceOnUse">
<stop stop-color="white"/>
<stop offset="1" stop-color="white" stop-opacity="0.72"/>
</linearGradient>
<linearGradient id="paint2_linear" x1="32.5545" y1="3" x2="32.5545" y2="10.9998" gradientUnits="userSpaceOnUse">
<stop stop-color="white"/>
<stop offset="1" stop-color="white" stop-opacity="0.72"/>
</linearGradient>
<linearGradient id="paint3_linear" x1="8.85153" y1="3.00018" x2="8.85153" y2="11" gradientUnits="userSpaceOnUse">
<stop stop-color="white"/>
<stop offset="1" stop-color="white" stop-opacity="0.72"/>
</linearGradient>
</defs>
</svg>
