<svg width="18" height="18" viewBox="0 0 18 18" fill="none" xmlns="http://www.w3.org/2000/svg">
<g clip-path="url(#clip0)">
<path d="M8.25061 18C5.43361 18 3.75061 13.4235 3.75061 9C3.75061 6.06375 4.85086 0 8.25061 0C9.80086 0 11.2124 1.52475 12.0276 4.0785C12.0906 4.27575 11.9819 4.4865 11.7846 4.5495C11.5881 4.61475 11.3759 4.50375 11.3136 4.3065C10.6131 2.11275 9.43936 0.75 8.25061 0.75C5.60086 0.75 4.50061 6.12375 4.50061 9C4.50061 13.4715 6.21811 17.25 8.25061 17.25C9.42886 17.25 10.5914 15.9158 11.2836 13.767C11.3339 13.6118 11.4779 13.5068 11.6406 13.5068C11.8476 13.5068 12.0194 13.6748 12.0194 13.8818C12.0194 13.9425 12.0051 13.9995 11.9804 14.0505C11.1696 16.5247 9.77836 18 8.25061 18Z" fill="black"/>
<path d="M11.6249 5.25014C11.5259 5.25014 11.4307 5.21114 11.3594 5.14064L9.85944 3.64064C9.71319 3.49439 9.71319 3.25664 9.85944 3.11039C10.0057 2.96414 10.2434 2.96414 10.3897 3.11039L11.5837 4.30439L12.4499 3.15014C12.5744 2.98439 12.8099 2.95064 12.9749 3.07514C13.1407 3.19964 13.1744 3.43439 13.0499 3.60014L11.9249 5.10014C11.8597 5.18714 11.7599 5.24114 11.6519 5.24939C11.6422 5.25014 11.6339 5.25014 11.6249 5.25014Z" fill="black"/>
<path d="M9 14.4372C4.5765 14.4372 0 12.7542 0 9.93721C0 8.40421 1.49625 7.00321 4.002 6.19021C4.1985 6.12721 4.41075 6.23371 4.4745 6.43096C4.53825 6.62821 4.43025 6.83896 4.23375 6.90346C2.052 7.61146 0.75 8.74546 0.75 9.93721C0.75 12.1805 5.016 13.6872 9 13.6872C12.327 13.6872 17.25 12.4955 17.25 9.93721C17.25 8.70496 15.8205 7.51246 13.5203 6.82396C13.3215 6.76471 13.209 6.55546 13.2682 6.35746C13.3275 6.15871 13.5367 6.04471 13.7347 6.10546C16.4055 6.90421 18 8.33671 18 9.93721C18 13.337 11.9362 14.4372 9 14.4372Z" fill="black"/>
<path d="M14.6249 8.43772C14.5289 8.43772 14.4329 8.40097 14.3594 8.32822L12.8594 6.82822C12.7822 6.75097 12.7432 6.64522 12.7507 6.53647C12.7582 6.42772 12.8129 6.32872 12.8999 6.26347L14.3999 5.13847C14.5649 5.01397 14.8004 5.04697 14.9249 5.21347C15.0494 5.37922 15.0157 5.61397 14.8499 5.73847L13.6957 6.60397L14.8897 7.79797C15.0359 7.94422 15.0359 8.18197 14.8897 8.32822C14.8169 8.40097 14.7209 8.43772 14.6249 8.43772Z" fill="black"/>
<g clip-path="url(#clip1)">
<path d="M8.25 6.8125H9.375C10.2034 6.8125 10.875 7.48407 10.875 8.3125V8.3125C10.875 9.14093 10.2034 9.8125 9.375 9.8125H8.25L10.875 12.0625" stroke="black" stroke-width="0.75" stroke-linecap="round" stroke-linejoin="round"/>
<path d="M7.8125 6.8125H11.3125" stroke="black" stroke-width="0.75" stroke-linecap="round"/>
<path d="M7.8125 8.5625H11.3125" stroke="black" stroke-width="0.75" stroke-linecap="round"/>
</g>
</g>
<defs>
<clipPath id="clip0">
<rect width="18" height="18" fill="white"/>
</clipPath>
<clipPath id="clip1">
<rect width="7" height="7" fill="white" transform="translate(6.5 5.5)"/>
</clipPath>
</defs>
</svg>
