<svg width="102" height="20" viewBox="0 0 102 20" fill="none" xmlns="http://www.w3.org/2000/svg">
<rect x="42.943" width="59.057" height="20" rx="10" fill="#4488FC"/>
<path d="M63.9891 15.7141C65.3742 15.7141 66.51 15.2222 67.3411 13.9782H67.4242L67.1749 15.5405H70.7486L71.9675 7.93126C72.2999 5.87705 70.6654 4.28577 67.6458 4.28577C64.46 4.28577 62.6039 6.02172 62.1607 8.04699H65.6789C65.8729 7.35261 66.4269 7.03435 67.1472 7.03435C67.8121 7.03435 68.2276 7.35261 68.1445 7.93126V7.96019C68.0337 8.59671 67.3134 8.79924 65.5127 8.9439C63.2965 9.11749 61.4404 10.0433 61.0526 12.4737C60.6924 14.6725 61.9668 15.7141 63.9891 15.7141ZM65.6512 13.197C64.9864 13.197 64.5985 12.8498 64.6816 12.2422C64.7647 11.6636 65.2357 11.2296 66.1499 11.0849C66.7593 10.9692 67.3134 10.8534 67.7289 10.6798L67.5904 11.6057C67.4242 12.6183 66.51 13.197 65.6512 13.197Z" fill="url(#paint0_linear)"/>
<path d="M83.5178 8.03749C83.8363 5.69988 81.9767 4.28577 78.5687 4.28577C75.4422 4.28577 73.3455 5.45457 72.9677 7.66232C72.6491 9.50932 73.7086 10.7358 75.9608 11.1255L77.9167 11.4718C78.7836 11.6377 79.0429 11.7604 79.0132 12.0778C78.9317 12.6406 78.1909 13.059 77.324 13.0302C76.5239 13.0157 76.0127 12.655 75.9905 11.9335H72.0194C71.8638 14.1846 73.6789 15.7141 77.2648 15.7141C80.3172 15.7141 82.7621 14.3505 83.1621 12.0778C83.4437 10.339 82.3916 9.27845 80.1394 8.87442L77.8871 8.47038C77.0499 8.31166 76.9462 8.11686 76.998 7.8932C77.0795 7.33044 77.8426 6.94083 78.6576 6.94083C79.354 6.94083 79.8949 7.34487 79.843 8.03749H83.5178Z" fill="url(#paint1_linear)"/>
<path d="M88.2822 15.7141C91.2767 15.7141 93.4037 14.2423 94.1593 11.9335H90.633C90.2972 12.5684 89.5975 12.9147 88.8139 12.9147C87.6665 12.9147 87.1347 12.1355 87.3026 11.0677L87.3376 10.8946H94.3272L94.4671 9.97107C95.0269 6.45022 93.2917 4.28577 90.0453 4.28577C86.7149 4.28577 84.2241 6.56566 83.6644 9.99993C83.0767 13.5785 84.8398 15.7141 88.2822 15.7141ZM87.7364 8.70126C87.9533 7.72725 88.7789 7.08513 89.7095 7.08513C90.661 7.08513 91.2487 7.7489 91.1088 8.70126H87.7364Z" fill="url(#paint2_linear)"/>
<path d="M54.7029 15.7143C57.6975 15.7143 59.8244 14.2424 60.5801 11.9337H57.0538C56.718 12.5686 56.0183 12.9149 55.2347 12.9149C54.0872 12.9149 53.5555 12.1357 53.7234 11.0679L53.7584 10.8947H60.748L60.8879 9.97124C61.4477 6.45039 59.7125 4.28593 56.4661 4.28593C53.1357 4.28593 50.6449 6.56583 50.0852 10.0001C49.4975 13.5787 51.2606 15.7143 54.7029 15.7143ZM54.1572 8.70143C54.3741 7.72742 55.1997 7.0853 56.1302 7.0853C57.0818 7.0853 57.6695 7.74907 57.5296 8.70143H54.1572Z" fill="url(#paint3_linear)"/>
<path d="M6.27692 13.0622C9.17915 13.0622 10.5796 10.1136 10.5796 7.81649C10.5796 5.58792 9.36476 4.37077 7.54243 4.37077C6.69876 4.37077 6.04069 4.6622 5.33201 5.45077L5.53449 4.57649H2.49727L0 16.0108H3.03722L3.91464 11.9822C4.43772 12.7193 5.34888 13.0622 6.27692 13.0622ZM5.73697 10.3365C5.19702 10.3365 4.70769 10.1308 4.38709 9.77077L4.85955 7.6622C5.21389 7.3022 5.61886 7.09649 6.09131 7.09649C6.81687 7.09649 7.44119 7.64506 7.44119 8.46792C7.44119 9.53077 6.69876 10.3365 5.73697 10.3365Z" fill="#404553"/>
<path d="M14.6415 4.37077C11.7393 4.37077 10.3388 7.31935 10.3388 9.61649C10.3388 11.8451 11.5537 13.0622 13.376 13.0622C14.2197 13.0622 14.8778 12.7708 15.5864 11.9822L15.384 12.8565H18.4212L20.2266 4.57649H17.1894L17.0038 5.45077C16.4807 4.71363 15.5696 4.37077 14.6415 4.37077ZM15.1815 7.09649C15.7214 7.09649 16.2108 7.3022 16.5314 7.6622L16.0589 9.77077C15.7046 10.1308 15.2996 10.3365 14.8271 10.3365C14.1016 10.3365 13.4773 9.78792 13.4773 8.96506C13.4773 7.9022 14.2197 7.09649 15.1815 7.09649Z" fill="#404553"/>
<path d="M18.6693 15.9936C19.1417 16.1479 19.7492 16.2165 20.3229 16.2165C21.9596 16.2165 23.0226 15.6679 24.0857 13.8851L29.6708 4.57649H26.3804L23.7651 9.30792L23.2589 4.57649H20.1373L21.4871 12.8908L21.3184 13.1651C21.1665 13.3879 20.9134 13.4908 20.4916 13.4908C20.1879 13.4908 19.8335 13.4565 19.6311 13.3708L18.6693 15.9936Z" fill="#404553"/>
<path d="M35.1588 16.4229C36.4075 16.4229 37.6223 16.0286 38.6685 15.3429L38.2635 14.76C37.3524 15.3429 36.3231 15.6857 35.2432 15.6857C32.5434 15.6857 30.5692 13.6457 30.5692 10.9886C30.5692 7.80001 33.3027 5.04001 36.4412 5.04001C39.2591 5.04001 40.9802 6.72001 40.9802 9.34286C40.9802 10.9029 40.3052 11.7429 39.6472 11.7429C39.3603 11.7429 39.1747 11.5714 39.1747 11.0914C39.1747 11.0057 39.2084 10.7143 39.2253 10.6286L40.0015 6.90858H37.3355L37.1836 7.66286C36.7955 7.08001 36.07 6.70286 35.1251 6.70286C33.2015 6.70286 31.4635 8.60572 31.4635 10.7829C31.4635 12.4457 32.4084 13.7657 34.1127 13.7657C34.8551 13.7657 35.6988 13.3714 36.2893 12.5143L36.3231 12.6343C36.4918 13.2171 36.9812 13.7657 38.0611 13.7657C39.5797 13.7657 41.8238 12.4114 41.8238 9.34286C41.8238 6.63429 39.7821 4.28572 36.5087 4.28572C32.999 4.28572 29.8099 7.42286 29.8099 11.04C29.8099 14.0743 32.0879 16.4229 35.1588 16.4229ZM35.2601 11.64C34.6189 11.64 34.197 11.2114 34.197 10.5429C34.197 9.66858 34.8213 8.82858 35.8506 8.82858C36.3568 8.82858 36.6774 9.08572 36.8293 9.30858L36.5087 10.9371C36.2556 11.2629 35.8844 11.64 35.2601 11.64Z" fill="#404553"/>
<defs>
<linearGradient id="paint0_linear" x1="66.5009" y1="4.28577" x2="66.5009" y2="15.7141" gradientUnits="userSpaceOnUse">
<stop stop-color="white"/>
<stop offset="1" stop-color="white" stop-opacity="0.72"/>
</linearGradient>
<linearGradient id="paint1_linear" x1="77.7815" y1="4.28577" x2="77.7815" y2="15.7141" gradientUnits="userSpaceOnUse">
<stop stop-color="white"/>
<stop offset="1" stop-color="white" stop-opacity="0.72"/>
</linearGradient>
<linearGradient id="paint2_linear" x1="89.0619" y1="4.28577" x2="89.0619" y2="15.7141" gradientUnits="userSpaceOnUse">
<stop stop-color="white"/>
<stop offset="1" stop-color="white" stop-opacity="0.72"/>
</linearGradient>
<linearGradient id="paint3_linear" x1="55.4827" y1="4.28593" x2="55.4827" y2="15.7143" gradientUnits="userSpaceOnUse">
<stop stop-color="white"/>
<stop offset="1" stop-color="white" stop-opacity="0.72"/>
</linearGradient>
</defs>
</svg>
